<svg xmlns="http://www.w3.org/2000/svg" viewBox="0 0 256 256">
  <rect width="256" height="256" fill="#ffffff"/>
  <path d="M60 70 L60 186 L120 186 L120 160 L90 160 L90 70 Z" fill="#1e3a5f"/>
  <path d="M140 130 Q140 110 160 110 Q180 110 180 130 L180 140 Q180 160 200 160 Q220 160 220 140 L220 130 Q220 90 200 70 Q180 50 160 50 Q140 50 120 70 Q100 90 100 130 L100 140 Q100 160 120 180 Q140 200 160 200 L196 200 L196 174 L160 174 Q150 174 150 164 L150 140 Q150 130 160 130 Q170 130 170 140 L170 150 L140 150 Z" fill="#1e3a5f"/>
</svg>